# xmcd
#
# Track frame offsets: 
#        150
#        27297
#        49927
#        76970
#        105020
#        134352
#        156665
#        181695
#        208432
#        230892
#        264647
#
# Disc length: 3994 seconds
#
# Revision: 2
# Processed by: cddbd v1.5.1PL0 Copyright (c) Steve Scherf et al.
# Submitted via: ExactAudioCopy v0.95b2
#
DISCID=980f980b
DTITLE=Various Artist - It's A Finger Lickin' Thang CD2_The Remixes
DYEAR=1999
DGENRE=Breaks
TTITLE0=Soul Of Man - Gonna Keep On (Ben Chapman Mix)
TTITLE1=2 Inda Bush - The Lick (Cut La Roc Mix)
TTITLE2=2 Inda Bush - Nutty Drumstick (Matt Cantor/Freestylers Mix)
TTITLE3=Freaky Jalapeno - Gettin' It On (Dreadzone Mix)
TTITLE4=Freaky Jalapeno - Gotta Get It (General Narco and Barry Ashworth
TTITLE4=/Dub Pistols Mix)
TTITLE5=Osmosis - Junglefreak (Skeewiff Mix)
TTITLE6=Flint - Everybody's Funkin' (Krafty Kuts Mix)
TTITLE7=Soul Of Man - Love and Hate (Rrennie Pilgrem Mix)
TTITLE8=Soul Of Man - Between The Eyes (Danmass Mix)
TTITLE9=El Loco Gringo - Watchuwanna (Freddy Fresh Mix)
TTITLE10=Lee Coombs - Sky Juice (Freq Nasty Mix)
EXTD=YEAR: 1999 ID3G: 126
EXTT0=
EXTT1=
EXTT2=
EXTT3=
EXTT4=
EXTT5=
EXTT6=
EXTT7=
EXTT8=
EXTT9=
EXTT10=
PLAYORDER=
